<svg width="620" height="98" viewBox="0 0 620 98" fill="none" xmlns="http://www.w3.org/2000/svg">
<g filter="url(#filter0_d_226_723)">
<path d="M0.818359 88.055V2.41772H38.3659C57.4938 2.41772 71.7808 6.67005 71.7808 25.0968C71.7808 32.184 69.8916 37.3813 65.0506 41.7518C71.0723 45.4135 74.9688 51.3195 74.9688 60.7692C74.9688 80.259 60.918 88.055 39.9008 88.055H0.818359ZM25.4958 53.3276V68.0926H40.6093C46.1587 68.0926 49.2287 64.9034 49.2287 60.7692C49.2287 56.5168 46.1587 53.3276 40.6093 53.3276H25.4958ZM25.4958 22.38V36.2001H39.0743C43.7973 36.2001 46.3949 33.0109 46.3949 29.3492C46.3949 25.6874 43.7973 22.38 39.0743 22.38H25.4958Z" fill="white"/>
<path d="M105.754 2.41772V66.7933H145.663V88.055H81.0763V2.41772H105.754Z" fill="white"/>
<path d="M141.423 88.055L172.477 2.41772H199.516L230.569 88.055H203.766L199.397 73.7624H172.122L167.754 88.055H141.423ZM185.937 29.5854L177.908 55.3356H193.73L185.937 29.5854Z" fill="white"/>
<path d="M230.355 27.6955C230.355 9.15057 248.538 0.409668 266.84 0.409668C282.071 0.409668 293.525 3.83516 304.387 9.85929L293.997 30.2941C287.739 26.5143 276.404 22.38 266.013 22.38C259.401 22.38 255.623 23.9156 255.623 27.223C255.623 29.7035 257.984 31.4753 262.707 32.5384L275.341 35.137C291.399 38.5625 304.978 43.6417 304.978 60.5329C304.978 79.9046 288.329 89.5905 267.548 89.5905C249.483 89.5905 236.023 84.3932 226.459 77.306L238.62 57.3437C245.823 62.6591 257.276 67.3839 268.375 67.3839C275.341 67.3839 279.592 66.2027 279.592 62.541C279.592 58.8792 274.869 57.1074 266.84 55.3356L257.158 53.3276C243.697 50.4927 230.355 43.9961 230.355 27.6955Z" fill="white"/>
<path d="M328.739 88.055V23.5613H303.235V2.41772H379.039V23.5613H353.417V88.055H328.739Z" fill="white"/>
<path d="M382.737 88.055V2.41772H420.284C439.412 2.41772 453.699 6.67005 453.699 25.0968C453.699 32.184 451.81 37.3813 446.969 41.7518C452.991 45.4135 456.887 51.3195 456.887 60.7692C456.887 80.259 442.836 88.055 421.819 88.055H382.737ZM407.414 53.3276V68.0926H422.528C428.077 68.0926 431.147 64.9034 431.147 60.7692C431.147 56.5168 428.077 53.3276 422.528 53.3276H407.414ZM407.414 22.38V36.2001H420.993C425.716 36.2001 428.313 33.0109 428.313 29.3492C428.313 25.6874 425.716 22.38 420.993 22.38H407.414Z" fill="#E50F44"/>
<path d="M462.995 88.055V2.41772H530.769V23.5613H487.672V34.4283H528.526V55.69H487.672V66.7933H531.241V88.055H462.995Z" fill="#E50F44"/>
<path d="M557.291 88.055V23.5613H531.787V2.41772H607.59V23.5613H581.968V88.055H557.291Z" fill="#E50F44"/>
</g>
<defs>
<filter id="filter0_d_226_723" x="0.818359" y="0.409668" width="618.771" height="97.1807" filterUnits="userSpaceOnUse" color-interpolation-filters="sRGB">
<feFlood flood-opacity="0" result="BackgroundImageFix"/>
<feColorMatrix in="SourceAlpha" type="matrix" values="0 0 0 0 0 0 0 0 0 0 0 0 0 0 0 0 0 0 127 0" result="hardAlpha"/>
<feOffset dx="8" dy="4"/>
<feGaussianBlur stdDeviation="2"/>
<feComposite in2="hardAlpha" operator="out"/>
<feColorMatrix type="matrix" values="0 0 0 0 0 0 0 0 0 0 0 0 0 0 0 0 0 0 0.5 0"/>
<feBlend mode="normal" in2="BackgroundImageFix" result="effect1_dropShadow_226_723"/>
<feBlend mode="normal" in="SourceGraphic" in2="effect1_dropShadow_226_723" result="shape"/>
</filter>
</defs>
</svg>
